<svg width="178" height="178" viewBox="0 0 178 178" fill="none" xmlns="http://www.w3.org/2000/svg">
<path fill-rule="evenodd" clip-rule="evenodd" d="M26.6239 119H7.62387C6.64515 117.125 5.78165 115.133 5.02894 113.05C-0.370905 98.1027 -0.0687964 78.4593 4.3039 63.8176C10.6217 42.6636 24.66 24.657 43.634 13.3701C62.608 2.08311 85.1314 -1.65963 106.736 2.88433C128.341 7.4283 147.448 19.927 160.268 37.9009C173.088 55.8749 178.683 78.0108 175.944 99.9176C174.781 109.217 172.153 118.187 168.223 126.523C166.685 129.785 164.948 132.95 163.022 136C158.275 143.514 152.379 150.327 145.482 156.166C128.631 170.43 107.035 177.84 84.9763 176.925C68.6591 176.248 52.9711 171.052 39.5911 162.074C34.8834 158.916 30.4615 155.289 26.3983 151.226L39.703 137.921C42.4765 140.694 45.4626 143.21 48.6239 145.45C49.1281 145.807 49.6367 146.157 50.1496 146.5C60.6524 153.528 72.9582 157.594 85.7562 158.125C103.098 158.845 120.077 153.019 133.325 141.805C135.474 139.986 137.499 138.046 139.393 136C146.075 128.782 151.129 120.234 154.237 110.943C155.679 106.631 156.702 102.158 157.274 97.5833C159.427 80.3605 155.028 62.9575 144.949 48.8266C134.871 34.6958 119.849 24.8695 102.863 21.2971C85.8781 17.7247 68.1705 20.6672 53.2534 29.5408C38.3363 38.4145 27.2996 52.571 22.3326 69.202C21.538 71.8625 20.9081 74.6254 20.4416 77.439C19.1476 85.2432 19.1109 93.4374 20.3061 100.918L75.6239 48.8266L138.624 119H116.624L75.6239 73.5002L26.6239 119ZM83.1239 111V129.5H65.6239V111H83.1239Z" fill="#DAB56B"/>
</svg>
