<svg width="32" height="32" viewBox="0 0 32 32" fill="none" xmlns="http://www.w3.org/2000/svg">
<g id="ph:map-pin-thin">
<path id="Vector" d="M15.9997 7.66667C15.0108 7.66667 14.0441 7.95991 13.2218 8.50932C12.3996 9.05872 11.7587 9.83962 11.3803 10.7532C11.0018 11.6669 10.9028 12.6722 11.0957 13.6421C11.2887 14.612 11.7649 15.5029 12.4641 16.2022C13.1634 16.9015 14.0543 17.3777 15.0242 17.5706C15.9941 17.7635 16.9995 17.6645 17.9131 17.2861C18.8267 16.9076 19.6076 16.2668 20.157 15.4445C20.7064 14.6223 20.9997 13.6556 20.9997 12.6667C20.9997 11.3406 20.4729 10.0688 19.5352 9.13113C18.5975 8.19345 17.3258 7.66667 15.9997 7.66667ZM15.9997 16.5556C15.2305 16.5556 14.4786 16.3275 13.8391 15.9002C13.1996 15.4728 12.7011 14.8655 12.4068 14.1549C12.1125 13.4443 12.0355 12.6624 12.1855 11.908C12.3356 11.1536 12.7059 10.4607 13.2498 9.91681C13.7937 9.37294 14.4866 9.00255 15.241 8.8525C15.9954 8.70245 16.7773 8.77946 17.4879 9.0738C18.1985 9.36814 18.8058 9.86659 19.2332 10.5061C19.6605 11.1456 19.8886 11.8975 19.8886 12.6667C19.8886 13.1774 19.788 13.6831 19.5925 14.1549C19.3971 14.6267 19.1106 15.0554 18.7495 15.4165C18.3884 15.7776 17.9597 16.0641 17.4879 16.2595C17.0161 16.455 16.5104 16.5556 15.9997 16.5556ZM15.9997 1C12.9065 1.00331 9.94096 2.23353 7.75375 4.42074C5.56654 6.60795 4.33632 9.57349 4.33301 12.6667C4.33301 16.8917 6.30106 21.3875 10.0275 25.6694C11.7132 27.6174 13.6106 29.3717 15.6844 30.9C15.7777 30.9651 15.8887 31 16.0025 31C16.1162 31 16.2272 30.9651 16.3205 30.9C18.3924 29.3714 20.2879 27.6171 21.9719 25.6694C25.6955 21.3875 27.6663 16.8917 27.6663 12.6667C27.663 9.57349 26.4328 6.60795 24.2456 4.42074C22.0584 2.23353 19.0928 1.00331 15.9997 1ZM21.1525 24.9208C19.6003 26.6984 17.8741 28.3162 15.9997 29.75C14.125 28.3145 12.3988 26.6948 10.8469 24.9153C8.38162 22.0833 5.44412 17.6528 5.44412 12.6667C5.44412 9.86716 6.55622 7.18231 8.53577 5.20276C10.5153 3.22321 13.2002 2.11111 15.9997 2.11111C18.7992 2.11111 21.484 3.22321 23.4636 5.20276C25.4431 7.18231 26.5552 9.86716 26.5552 12.6667C26.5552 17.6528 23.6177 22.0833 21.1525 24.9208Z" fill="#DAB56B"/>
</g>
</svg>
