<svg width="32" height="32" viewBox="0 0 32 32" fill="none" xmlns="http://www.w3.org/2000/svg">
<g id="ph:phone-thin">
<path id="Vector" d="M30.8344 21.6561L23.2103 18.2445C22.9147 18.1166 22.5919 18.0643 22.2711 18.0925C21.9503 18.1207 21.6416 18.2284 21.3729 18.4059C21.3514 18.4195 21.3309 18.4347 21.3115 18.4511L17.3074 21.8644C17.2182 21.9187 17.1171 21.9503 17.0129 21.9562C16.9087 21.9621 16.8046 21.9422 16.71 21.8983C14.0879 20.6324 11.3737 17.9393 10.1079 15.3479C10.0631 15.2539 10.0423 15.1503 10.0474 15.0464C10.0525 14.9424 10.0833 14.8413 10.137 14.7521L13.5599 10.6817C13.576 10.6624 13.5906 10.6414 13.6051 10.6204C13.782 10.352 13.8894 10.0439 13.9176 9.72371C13.9458 9.40352 13.8939 9.08135 13.7666 8.78622L10.3485 1.17505C10.1835 0.789564 9.89784 0.468013 9.53451 0.258687C9.17117 0.0493604 8.74973 -0.0364421 8.33347 0.0141641C6.30163 0.282057 4.43678 1.28043 3.08724 2.8228C1.7377 4.36517 0.99577 6.34606 1.00002 8.39549C1.00002 20.8601 11.1396 30.9997 23.6042 30.9997C25.6537 31.004 27.6346 30.262 29.1769 28.9125C30.7193 27.563 31.7177 25.6981 31.9856 23.6663C32.0358 23.2519 31.9509 22.8324 31.7435 22.4702C31.536 22.108 31.2172 21.8225 30.8344 21.6561ZM30.7084 23.5048C30.4804 25.2255 29.6335 26.8043 28.326 27.946C27.0185 29.0877 25.34 29.7141 23.6042 29.708C11.8533 29.708 2.29169 20.1465 2.29169 8.39549C2.28568 6.65972 2.91206 4.98118 4.05373 3.6737C5.1954 2.36621 6.77419 1.5193 8.49493 1.2913C8.52074 1.2897 8.54662 1.2897 8.57243 1.2913C8.69985 1.29239 8.82409 1.33114 8.92953 1.40268C9.03497 1.47421 9.11689 1.57534 9.16499 1.69334L12.5734 9.3045C12.6131 9.39752 12.6305 9.49859 12.6241 9.59955C12.6176 9.70051 12.5875 9.79855 12.5362 9.88575L9.11493 13.9545C9.09879 13.9755 9.08264 13.9949 9.06811 14.0175C8.88584 14.2962 8.77849 14.6172 8.75643 14.9495C8.73437 15.2819 8.79834 15.6142 8.94217 15.9146C10.3453 18.787 13.2386 21.6593 16.1432 23.0624C16.4457 23.2053 16.7799 23.2675 17.1135 23.2428C17.4471 23.2182 17.7687 23.1077 18.0468 22.9219L18.1066 22.8767L22.1156 19.4667C22.2014 19.4143 22.2983 19.383 22.3985 19.3755C22.4988 19.3679 22.5993 19.3842 22.692 19.4231L30.3145 22.8396C30.4431 22.8931 30.551 22.9868 30.622 23.1067C30.693 23.2266 30.7233 23.3663 30.7084 23.5048Z" fill="#DAB56B"/>
</g>
</svg>
